HIERARCHY
ROOT mixamorig:Hips
{
	OFFSET 0.000000 201.639420 0.000000
	CHANNELS 6 Xposition Yposition Zposition Xrotation Yrotation Zrotation
	JOINT mixamorig:Spine
	{
		OFFSET 0.006200 19.524994 -2.481800
		CHANNELS 3 Xrotation Yrotation Zrotation
		JOINT mixamorig:Spine1
		{
			OFFSET -0.000900 22.835007 -2.825400
			CHANNELS 3 Xrotation Yrotation Zrotation
			JOINT mixamorig:Spine2
			{
				OFFSET -0.020600 26.552490 -3.193300
				CHANNELS 3 Xrotation Yrotation Zrotation
				JOINT mixamorig:Neck
				{
					OFFSET -0.060000 30.701813 1.352200
					CHANNELS 3 Xrotation Yrotation Zrotation
					JOINT mixamorig:Head
					{
						OFFSET -0.087200 22.547607 3.670900
						CHANNELS 3 Xrotation Yrotation Zrotation
						JOINT mixamorig:HeadTop_End
						{
							OFFSET -0.830600 40.355194 7.893500
							CHANNELS 3 Xrotation Yrotation Zrotation
							End Site
							{
								OFFSET 0.000000 30.592346 0.000000
							}
						}
						JOINT mixamorig:RightEye
						{
							OFFSET -6.302100 18.118591 16.197100
							CHANNELS 3 Xrotation Yrotation Zrotation
							End Site
							{
								OFFSET 0.000000 30.592346 0.000000
							}
						}
						JOINT mixamorig:LeftEye
						{
							OFFSET 6.741500 18.382690 16.401899
							CHANNELS 3 Xrotation Yrotation Zrotation
							End Site
							{
								OFFSET 0.000000 30.592346 0.000000
							}
						}
					}
				}
				JOINT mixamorig:LeftShoulder
				{
					OFFSET 11.924900 18.230499 1.425400
					CHANNELS 3 Xrotation Yrotation Zrotation
					JOINT mixamorig:LeftArm
					{
						OFFSET 25.435989 -0.697632 -5.229300
						CHANNELS 3 Xrotation Yrotation Zrotation
						JOINT mixamorig:LeftForeArm
						{
							OFFSET 54.684776 0.000000 0.000000
							CHANNELS 3 Xrotation Yrotation Zrotation
							JOINT mixamorig:LeftHand
							{
								OFFSET 55.098175 0.000000 0.000000
								CHANNELS 3 Xrotation Yrotation Zrotation
								JOINT mixamorig:LeftHandMiddle1
								{
									OFFSET 23.369751 0.000000 0.000000
									CHANNELS 3 Xrotation Yrotation Zrotation
									JOINT mixamorig:LeftHandMiddle2
									{
										OFFSET 6.378677 0.000000 0.000000
										CHANNELS 3 Xrotation Yrotation Zrotation
										JOINT mixamorig:LeftHandMiddle3
										{
											OFFSET 6.148331 0.000000 0.000000
											CHANNELS 3 Xrotation Yrotation Zrotation
											JOINT mixamorig:LeftHandMiddle4
											{
												OFFSET 6.582504 0.000000 0.000000
												CHANNELS 3 Xrotation Yrotation Zrotation
												End Site
												{
													OFFSET -1.168900 6.395691 1.028606
												}
											}
										}
									}
								}
								JOINT mixamorig:LeftHandThumb1
								{
									OFFSET 7.235672 -3.848206 5.434273
									CHANNELS 3 Xrotation Yrotation Zrotation
									JOINT mixamorig:LeftHandThumb2
									{
										OFFSET 6.568451 -3.792297 3.792300
										CHANNELS 3 Xrotation Yrotation Zrotation
										JOINT mixamorig:LeftHandThumb3
										{
											OFFSET 6.063080 -3.500519 3.500518
											CHANNELS 3 Xrotation Yrotation Zrotation
											JOINT mixamorig:LeftHandThumb4
											{
												OFFSET 4.793182 -2.767334 2.767349
												CHANNELS 3 Xrotation Yrotation Zrotation
												End Site
												{
													OFFSET 0.101639 6.054260 1.275483
												}
											}
										}
									}
								}
								JOINT mixamorig:LeftHandIndex1
								{
									OFFSET 23.101074 -0.309540 4.992809
									CHANNELS 3 Xrotation Yrotation Zrotation
									JOINT mixamorig:LeftHandIndex2
									{
										OFFSET 6.226883 0.000000 0.000000
										CHANNELS 3 Xrotation Yrotation Zrotation
										JOINT mixamorig:LeftHandIndex3
										{
											OFFSET 6.094330 0.000000 0.000000
											CHANNELS 3 Xrotation Yrotation Zrotation
											JOINT mixamorig:LeftHandIndex4
											{
												OFFSET 5.482605 0.000000 0.000000
												CHANNELS 3 Xrotation Yrotation Zrotation
												End Site
												{
													OFFSET -1.427902 5.233032 0.797164
												}
											}
										}
									}
								}
								JOINT mixamorig:LeftHandRing1
								{
									OFFSET 22.299240 0.021149 -3.964172
									CHANNELS 3 Xrotation Yrotation Zrotation
									JOINT mixamorig:LeftHandRing2
									{
										OFFSET 6.321869 0.000000 0.000000
										CHANNELS 3 Xrotation Yrotation Zrotation
										JOINT mixamorig:LeftHandRing3
										{
											OFFSET 5.899796 0.000000 0.000000
											CHANNELS 3 Xrotation Yrotation Zrotation
											JOINT mixamorig:LeftHandRing4
											{
												OFFSET 6.517899 0.000000 0.000000
												CHANNELS 3 Xrotation Yrotation Zrotation
												End Site
												{
													OFFSET -1.637299 6.232208 0.980890
												}
											}
										}
									}
								}
								JOINT mixamorig:LeftHandPinky1
								{
									OFFSET 20.463791 -0.302338 -8.562233
									CHANNELS 3 Xrotation Yrotation Zrotation
									JOINT mixamorig:LeftHandPinky2
									{
										OFFSET 6.908646 0.000000 0.000000
										CHANNELS 3 Xrotation Yrotation Zrotation
										JOINT mixamorig:LeftHandPinky3
										{
											OFFSET 4.622849 0.000000 0.000000
											CHANNELS 3 Xrotation Yrotation Zrotation
											JOINT mixamorig:LeftHandPinky4
											{
												OFFSET 5.216080 0.000000 0.000000
												CHANNELS 3 Xrotation Yrotation Zrotation
												End Site
												{
													OFFSET -0.606308 5.116241 0.814926
												}
											}
										}
									}
								}
							}
						}
					}
				}
				JOINT mixamorig:RightShoulder
				{
					OFFSET -12.001300 18.284088 1.348900
					CHANNELS 3 Xrotation Yrotation Zrotation
					JOINT mixamorig:RightArm
					{
						OFFSET -25.308500 -0.751312 -5.164599
						CHANNELS 3 Xrotation Yrotation Zrotation
						JOINT mixamorig:RightForeArm
						{
							OFFSET -54.684429 0.000000 0.000000
							CHANNELS 3 Xrotation Yrotation Zrotation
							JOINT mixamorig:RightHand
							{
								OFFSET -55.150291 0.000000 0.000000
								CHANNELS 3 Xrotation Yrotation Zrotation
								JOINT mixamorig:RightHandMiddle1
								{
									OFFSET -23.317566 0.000000 0.000000
									CHANNELS 3 Xrotation Yrotation Zrotation
									JOINT mixamorig:RightHandMiddle2
									{
										OFFSET -6.378403 0.000000 0.000000
										CHANNELS 3 Xrotation Yrotation Zrotation
										JOINT mixamorig:RightHandMiddle3
										{
											OFFSET -6.148193 0.000000 0.000000
											CHANNELS 3 Xrotation Yrotation Zrotation
											JOINT mixamorig:RightHandMiddle4
											{
												OFFSET -6.583389 0.000000 0.000000
												CHANNELS 3 Xrotation Yrotation Zrotation
												End Site
												{
													OFFSET 1.171692 6.395905 1.029786
												}
											}
										}
									}
								}
								JOINT mixamorig:RightHandThumb1
								{
									OFFSET -7.190521 -3.860474 5.435846
									CHANNELS 3 Xrotation Yrotation Zrotation
									JOINT mixamorig:RightHandThumb2
									{
										OFFSET -6.567429 -3.791718 3.791708
										CHANNELS 3 Xrotation Yrotation Zrotation
										JOINT mixamorig:RightHandThumb3
										{
											OFFSET -6.062469 -3.500153 3.500166
											CHANNELS 3 Xrotation Yrotation Zrotation
											JOINT mixamorig:RightHandThumb4
											{
												OFFSET -4.792618 -2.767029 2.767022
												CHANNELS 3 Xrotation Yrotation Zrotation
												End Site
												{
													OFFSET -0.100327 6.053253 1.276754
												}
											}
										}
									}
								}
								JOINT mixamorig:RightHandIndex1
								{
									OFFSET -23.048981 -0.310791 4.992554
									CHANNELS 3 Xrotation Yrotation Zrotation
									JOINT mixamorig:RightHandIndex2
									{
										OFFSET -6.227539 0.000000 0.000000
										CHANNELS 3 Xrotation Yrotation Zrotation
										JOINT mixamorig:RightHandIndex3
										{
											OFFSET -6.095047 0.000000 0.000000
											CHANNELS 3 Xrotation Yrotation Zrotation
											JOINT mixamorig:RightHandIndex4
											{
												OFFSET -5.484772 0.000000 0.000000
												CHANNELS 3 Xrotation Yrotation Zrotation
												End Site
												{
													OFFSET 1.420593 5.237305 0.797056
												}
											}
										}
									}
								}
								JOINT mixamorig:RightHandRing1
								{
									OFFSET -22.246323 0.020569 -3.963762
									CHANNELS 3 Xrotation Yrotation Zrotation
									JOINT mixamorig:RightHandRing2
									{
										OFFSET -6.322128 0.000000 0.000000
										CHANNELS 3 Xrotation Yrotation Zrotation
										JOINT mixamorig:RightHandRing3
										{
											OFFSET -5.900024 0.000000 0.000000
											CHANNELS 3 Xrotation Yrotation Zrotation
											JOINT mixamorig:RightHandRing4
											{
												OFFSET -6.518356 0.000000 0.000000
												CHANNELS 3 Xrotation Yrotation Zrotation
												End Site
												{
													OFFSET 1.636398 6.232697 0.982186
												}
											}
										}
									}
								}
								JOINT mixamorig:RightHandPinky1
								{
									OFFSET -20.411011 -0.303314 -8.561701
									CHANNELS 3 Xrotation Yrotation Zrotation
									JOINT mixamorig:RightHandPinky2
									{
										OFFSET -6.907349 0.000000 0.000000
										CHANNELS 3 Xrotation Yrotation Zrotation
										JOINT mixamorig:RightHandPinky3
										{
											OFFSET -4.623840 0.000000 0.000000
											CHANNELS 3 Xrotation Yrotation Zrotation
											JOINT mixamorig:RightHandPinky4
											{
												OFFSET -5.218353 0.000000 0.000000
												CHANNELS 3 Xrotation Yrotation Zrotation
												End Site
												{
													OFFSET 0.602097 5.118835 0.816273
												}
											}
										}
									}
								}
							}
						}
					}
				}
			}
		}
	}
	JOINT mixamorig:LeftUpLeg
	{
		OFFSET 18.168400 -13.561905 -0.039000
		CHANNELS 3 Xrotation Yrotation Zrotation
		JOINT mixamorig:LeftLeg
		{
			OFFSET 0.577358 -80.825211 -3.695000
			CHANNELS 3 Xrotation Yrotation Zrotation
			JOINT mixamorig:LeftFoot
			{
				OFFSET -0.577356 -83.370262 -6.520700
				CHANNELS 3 Xrotation Yrotation Zrotation
				JOINT mixamorig:LeftToeBase
				{
					OFFSET 0.750401 -20.798306 25.135401
					CHANNELS 3 Xrotation Yrotation Zrotation
					JOINT mixamorig:LeftToe_End
					{
						OFFSET -0.000500 0.001200 19.917799
						CHANNELS 3 Xrotation Yrotation Zrotation
						End Site
						{
							OFFSET 0.000000 19.917805 0.000000
						}
					}
				}
			}
		}
	}
	JOINT mixamorig:RightUpLeg
	{
		OFFSET -18.162500 -13.585098 -0.041000
		CHANNELS 3 Xrotation Yrotation Zrotation
		JOINT mixamorig:RightLeg
		{
			OFFSET -0.595024 -80.945297 -3.631900
			CHANNELS 3 Xrotation Yrotation Zrotation
			JOINT mixamorig:RightFoot
			{
				OFFSET 0.595024 -83.218193 -6.561200
				CHANNELS 3 Xrotation Yrotation Zrotation
				JOINT mixamorig:RightToeBase
				{
					OFFSET -0.753601 -20.807106 25.115000
					CHANNELS 3 Xrotation Yrotation Zrotation
					JOINT mixamorig:RightToe_End
					{
						OFFSET 0.000299 0.001700 19.918200
						CHANNELS 3 Xrotation Yrotation Zrotation
						End Site
						{
							OFFSET 0.000000 19.918203 0.000000
						}
					}
				}
			}
		}
	}
}
MOTION
Frames: 4
Frame Time: 0.033333
-0.252692 196.619171 0.399038 -1.192318 -10.435304 0.691126 1.991743 1.932165 1.921748 4.110857 3.976793 -1.098657 4.070812 4.016885 -1.101828 2.859943 0.159098 -1.447173 -18.473944 -0.884116 1.820629 0.000000 0.000000 -0.000000 0.000000 0.000000 -0.000000 0.000000 0.000000 -0.000000 0.382112 5.785126 -10.783772 -18.969215 -19.587623 -70.579821 0.000004 -11.235852 0.000023 46.064005 -6.304589 -6.349589 -0.000002 -0.001940 0.015982 -0.000002 0.001924 -0.015984 -0.000003 0.000000 -0.000004 0.000002 -0.000000 0.000000 -1.540055 3.690188 6.142348 3.939037 7.948702 0.746803 -0.579464 1.575004 2.538721 -0.000004 0.000001 -0.000001 -0.000005 0.000002 0.000001 -0.000012 -0.000012 0.000002 0.000004 0.000004 -0.000003 -0.000002 0.000001 -0.000001 -0.000009 0.000003 -0.000004 -0.000002 -0.000004 -0.000007 -0.000000 0.000001 0.000002 0.000001 -0.000000 -0.000000 -0.018091 4.054252 0.511060 -0.018092 -4.054262 -0.511066 0.000009 -0.000001 -0.000000 -0.000001 0.000000 0.000001 -0.255387 -6.944545 11.822468 -18.532796 8.011245 64.365005 0.000008 20.347876 -0.000020 51.460155 -0.191240 21.480091 -0.000003 -0.000004 -0.000003 0.000001 0.000001 -0.000003 0.000007 0.000006 0.000013 0.000002 0.000001 -0.000003 -1.849254 -3.581794 -6.586142 4.637201 -8.634133 -0.225417 -1.273750 0.137326 -2.094871 -0.000001 -0.000001 0.000001 -0.000006 -0.000002 -0.000002 0.000001 0.000011 0.000007 0.000005 -0.000013 -0.000015 0.000002 0.000000 -0.000003 -0.000003 -0.000003 -0.000006 0.000003 0.000007 0.000021 -0.000004 -0.000004 -0.000007 0.000003 -0.000000 0.000001 0.000003 0.000000 0.000002 0.000001 0.000003 0.000000 0.000000 -0.000004 -0.000009 -0.000001 0.000001 -0.000000 -10.823330 5.116750 7.803771 22.467839 0.100130 1.498767 -10.215542 0.886259 -6.692113 -0.297073 -0.000001 -0.000000 -0.000000 0.000000 -0.000000 -16.511936 -6.988457 -9.873567 24.614699 0.366223 -1.107578 -7.059428 -0.524494 7.453874 -0.003695 -0.000002 0.000001 0.000000 -0.000000 -0.000000 
-0.218707 196.603470 0.315048 -1.242087 -10.475465 0.680632 2.003506 1.927651 1.920995 4.133598 3.969212 -1.091901 4.093700 4.009472 -1.095069 2.865362 0.160088 -1.432305 -18.482444 -0.840115 1.756674 0.000000 -0.000000 0.000000 0.000000 -0.000000 0.000000 0.000000 -0.000000 0.000000 0.381624 5.783025 -10.772113 -18.941040 -19.681485 -70.570457 -0.000005 -11.309432 -0.000020 45.906279 -6.207085 -6.586780 0.000001 -0.001940 0.015980 0.000004 0.001921 -0.015981 -0.000007 0.000005 -0.000006 -0.000000 -0.000001 0.000002 -1.540053 3.690188 6.142345 3.939032 7.948714 0.746806 -0.579466 1.574992 2.538699 -0.000001 0.000001 -0.000001 -0.000002 0.000002 -0.000000 -0.000009 -0.000010 -0.000003 0.000003 0.000003 0.000001 -0.000001 -0.000001 0.000002 -0.000007 0.000002 -0.000002 -0.000001 -0.000004 -0.000006 -0.000003 0.000001 0.000000 0.000000 -0.000001 -0.000000 -0.018089 4.054253 0.511060 -0.018091 -4.054264 -0.511063 0.000006 -0.000002 -0.000001 -0.000001 0.000000 0.000001 -0.256259 -6.944704 11.822374 -18.424338 8.124762 64.321401 -0.000001 20.525685 -0.000005 51.246616 -0.348687 21.640005 -0.000001 -0.000003 -0.000005 -0.000003 -0.000000 -0.000003 -0.000001 0.000008 0.000010 0.000001 0.000000 -0.000002 -1.849256 -3.581794 -6.586140 4.637195 -8.634127 -0.225397 -1.273754 0.137309 -2.094868 -0.000002 -0.000001 0.000000 -0.000003 -0.000001 -0.000001 -0.000003 0.000010 0.000008 0.000001 -0.000013 -0.000012 -0.000002 -0.000001 -0.000001 -0.000000 -0.000002 -0.000005 -0.000007 0.000006 0.000019 0.000001 -0.000005 -0.000003 -0.000005 0.000002 0.000000 0.000003 0.000001 0.000002 -0.000006 0.000001 0.000001 -0.000004 -0.000004 -0.000008 0.000003 -0.000000 -0.000000 -10.809804 5.127460 7.811681 22.506653 0.094908 1.488268 -10.219268 0.888834 -6.720643 -0.286875 -0.000001 0.000002 -0.000000 -0.000000 -0.000000 -16.532924 -7.021501 -9.916864 24.656851 0.376586 -1.056949 -7.034119 -0.521484 7.422942 -0.003594 0.000003 -0.000002 0.000000 -0.000000 -0.000000 
-0.164227 196.591675 0.247364 -1.285416 -10.525974 0.677987 2.013431 1.918543 1.939332 4.153340 3.953248 -1.091281 4.113313 3.994000 -1.094461 2.865763 0.155653 -1.419869 -18.464192 -0.831809 1.703499 0.000000 0.000000 -0.000000 0.000000 0.000000 -0.000000 0.000000 0.000000 -0.000000 0.381331 5.783150 -10.767713 -18.931191 -19.752309 -70.547815 0.000005 -11.379179 0.000015 46.018526 -6.244869 -6.623942 -0.000000 -0.001941 0.015985 0.000001 0.001921 -0.015983 -0.000007 0.000003 -0.000002 -0.000003 0.000000 -0.000001 -1.540052 3.690187 6.142347 3.939041 7.948709 0.746812 -0.579469 1.575008 2.538719 0.000004 0.000002 -0.000000 -0.000002 0.000000 0.000002 -0.000008 -0.000013 -0.000002 0.000008 0.000003 -0.000001 -0.000001 -0.000001 0.000002 -0.000010 0.000003 -0.000002 -0.000002 -0.000004 -0.000002 -0.000000 0.000002 -0.000002 -0.000000 -0.000001 -0.000000 -0.018092 4.054253 0.511062 -0.018088 -4.054261 -0.511068 0.000008 -0.000000 -0.000004 0.000003 -0.000001 0.000000 -0.262980 -6.961986 11.821614 -18.472644 8.161174 64.362976 -0.000006 20.550948 0.000022 51.218315 -0.379116 21.676760 -0.000008 -0.000005 -0.000000 0.000002 -0.000001 -0.000000 0.000002 0.000006 0.000009 0.000003 0.000001 -0.000000 -1.849255 -3.581796 -6.586138 4.637208 -8.634129 -0.225423 -1.273747 0.137317 -2.094862 -0.000002 -0.000000 0.000002 -0.000010 -0.000003 -0.000001 0.000002 0.000010 0.000006 0.000002 -0.000015 -0.000012 0.000003 -0.000001 -0.000002 -0.000006 -0.000004 -0.000002 -0.000003 0.000006 0.000019 -0.000004 -0.000005 -0.000003 0.000003 0.000001 -0.000001 -0.000002 -0.000001 0.000004 -0.000004 0.000002 0.000001 0.000000 -0.000004 -0.000007 0.000000 -0.000001 0.000001 -10.805668 5.131233 7.802210 22.563445 0.096689 1.471980 -10.237169 0.887877 -6.700401 -0.292453 -0.000000 0.000002 -0.000000 -0.000000 -0.000000 -16.549285 -7.056474 -9.972728 24.676814 0.384423 -1.024668 -6.998240 -0.518622 7.416909 -0.003567 -0.000009 -0.000001 -0.000000 0.000000 -0.000000 
-0.113021 196.578384 0.172359 -1.325971 -10.502857 0.691842 2.024721 1.892984 1.962361 4.175326 3.903287 -1.093750 4.135430 3.944652 -1.096946 2.856495 0.170372 -1.428905 -18.449779 -0.771040 1.728758 0.000001 0.000000 0.000000 0.000001 0.000000 0.000000 0.000001 0.000000 0.000000 0.380852 5.782460 -10.758866 -18.959893 -19.784003 -70.541477 -0.000003 -11.421997 -0.000017 46.240596 -6.366080 -6.513895 -0.000000 -0.001940 0.015980 0.000000 0.001922 -0.015983 -0.000005 0.000004 -0.000008 -0.000001 0.000002 -0.000000 -1.540052 3.690189 6.142343 3.939038 7.948721 0.746823 -0.579465 1.574992 2.538715 0.000003 0.000001 -0.000001 -0.000003 0.000004 -0.000008 -0.000004 -0.000009 -0.000006 0.000005 0.000003 0.000003 -0.000003 0.000001 -0.000001 -0.000007 0.000005 -0.000006 0.000000 -0.000004 -0.000002 -0.000005 0.000002 -0.000003 -0.000003 0.000001 -0.000001 -0.018089 4.054253 0.511058 -0.018093 -4.054261 -0.511068 0.000011 0.000000 -0.000005 -0.000002 0.000001 -0.000000 -0.274987 -6.990534 11.820249 -18.351397 8.184796 64.376992 -0.000000 20.811984 -0.000019 51.289420 -0.496651 21.710320 -0.000008 -0.000004 -0.000003 -0.000004 -0.000002 0.000000 0.000004 0.000007 0.000011 0.000004 -0.000001 -0.000002 -1.849251 -3.581793 -6.586142 4.637214 -8.634130 -0.225408 -1.273761 0.137321 -2.094862 0.000001 -0.000000 0.000003 -0.000004 -0.000001 0.000002 -0.000001 0.000007 0.000012 0.000005 -0.000012 -0.000014 -0.000002 0.000000 -0.000000 -0.000006 -0.000003 -0.000004 -0.000001 0.000005 0.000019 -0.000002 -0.000004 -0.000004 -0.000002 -0.000000 0.000000 0.000000 0.000000 0.000002 0.000000 0.000003 -0.000001 -0.000006 -0.000007 -0.000007 0.000003 -0.000001 -0.000000 -10.862858 5.125865 7.783672 22.678964 0.108195 1.444368 -10.252710 0.879856 -6.600780 -0.325389 -0.000001 0.000003 -0.000000 0.000000 -0.000000 -16.573626 -7.099394 -10.042079 24.725818 0.388605 -0.987730 -6.988116 -0.515463 7.401696 -0.003610 0.000007 -0.000002 0.000000 -0.000002 -0.000000 
